<svg version="1.1" id="Layer_1" xmlns="http://www.w3.org/2000/svg" xmlns:xlink="http://www.w3.org/1999/xlink" x="0px" y="0px"
	 width="100%" viewBox="0 0 365 307" enable-background="new 0 0 365 307" xml:space="preserve">
<path fill="#425369" opacity="1.000000" stroke="none" 
	d="
M279.000000,308.000000 
	C258.645782,308.000000 238.291550,308.000000 217.360352,307.677246 
	C211.552689,302.841217 206.620483,297.913422 201.035507,293.892273 
	C184.065994,281.674316 169.909515,266.454437 155.358978,251.670013 
	C151.382538,247.629654 148.425049,242.586487 145.270355,237.793915 
	C147.234909,235.505249 149.964676,233.635376 150.434601,231.309006 
	C152.026459,223.428848 144.242599,222.901230 138.579254,219.553436 
	C147.826157,218.881226 147.826157,218.881226 149.139633,216.421005 
	C145.563705,212.847916 141.959991,211.773361 137.546280,213.041718 
	C133.565430,214.185699 132.340927,217.293915 131.610931,221.000229 
	C130.155472,221.000412 129.096954,221.000656 127.952179,220.583282 
	C127.274376,217.347778 129.536865,213.027725 123.999771,212.414734 
	C124.008240,211.482101 124.013641,210.949188 124.361763,210.331573 
	C125.730324,209.248444 127.448143,208.376205 127.657372,207.228851 
	C128.402893,203.140762 126.058449,202.198456 119.754089,203.888596 
	C117.737778,201.987991 115.645065,200.437775 114.416115,198.373367 
	C107.776489,187.220078 100.709129,176.253601 95.014336,164.622864 
	C87.931786,150.157898 81.376060,135.353241 75.826324,120.242256 
	C70.157951,104.808212 65.291267,88.997864 61.318424,73.042305 
	C55.440132,49.434139 52.399208,25.307421 51.000000,1.000000 
	C65.020897,1.000000 79.041786,1.000000 93.449814,1.370486 
	C94.225784,6.843322 94.354897,11.981502 95.052910,17.041199 
	C97.025299,31.338470 98.535217,45.752300 101.546516,59.838192 
	C104.380180,73.093147 108.258476,86.217155 112.840988,98.980927 
	C117.815605,112.836868 123.983444,126.276657 129.926910,139.767532 
	C133.060120,146.879501 136.824005,153.713623 140.130188,160.936310 
	C133.456741,167.668900 129.987625,175.461227 130.087845,185.062347 
	C131.575638,184.519333 132.789413,183.639664 133.273575,182.460419 
	C134.399429,179.718216 135.173523,176.831604 136.542404,174.026886 
	C137.897797,174.117310 138.800934,174.184357 139.606491,174.629944 
	C138.613663,178.124969 137.718430,181.241455 136.666763,184.902588 
	C139.881027,184.902588 142.321640,184.902588 145.177399,184.918121 
	C146.423111,184.954880 147.253693,184.976105 148.267990,185.219910 
	C148.966553,185.690277 149.481369,185.938065 150.052811,186.537933 
	C152.330170,190.724762 154.477875,194.604416 156.796692,198.378937 
	C158.409805,201.004715 160.257996,203.486084 161.716461,206.250336 
	C155.401230,207.162659 156.217499,213.295151 153.511673,216.633835 
	C153.049454,217.204208 153.752808,218.814270 154.068253,219.900284 
	C154.750580,222.249313 155.778625,224.526657 156.195663,226.915314 
	C156.560196,229.003113 156.366394,231.206970 156.267517,233.352570 
	C156.131897,236.294968 156.889984,237.987259 160.381378,237.949768 
	C163.772141,237.913361 164.079620,236.121536 164.012695,233.499893 
	C163.911636,229.540939 163.986343,225.577515 163.986343,222.652588 
	C166.080490,220.683945 167.508804,219.341217 169.308029,217.998825 
	C170.420746,217.999603 171.162552,218.000061 171.855408,218.373917 
	C167.995911,231.442307 174.263000,239.661438 186.456757,237.644409 
	C190.802750,240.465591 195.049652,242.772217 198.678116,245.816071 
	C206.157990,252.090851 213.044556,259.088654 220.664658,265.176300 
	C228.902191,271.757294 237.561157,277.840851 246.288467,283.770203 
	C255.158936,289.796814 264.207275,295.591766 273.454163,301.016998 
	C276.467896,302.785095 278.468201,304.614868 279.000000,308.000000 
z"/>
<path fill="#3C4D64" opacity="1.000000" stroke="none" 
	d="
M140.000000,308.000000 
	C127.979103,308.000000 115.958214,308.000000 103.424240,307.625061 
	C100.934006,303.917938 99.095032,300.492096 96.924904,297.290710 
	C95.733437,295.533051 93.841576,294.266479 92.509583,292.585083 
	C85.219780,283.383148 77.869392,274.223816 70.810768,264.845917 
	C65.628151,257.960449 60.780922,250.815994 55.972973,243.660141 
	C54.907288,242.074036 54.635559,239.954483 54.404282,237.997253 
	C57.728844,238.165848 59.034859,237.019058 58.937103,233.906479 
	C58.759457,228.250275 58.792221,222.582306 58.923374,216.923569 
	C58.995415,213.815414 57.597908,212.918747 54.687569,212.915024 
	C51.622330,212.911118 51.145016,214.526871 51.148426,217.032501 
	C51.156124,222.688538 51.020931,228.344772 50.652367,233.855286 
	C48.201145,231.790848 46.041428,229.872040 43.948761,227.528564 
	C44.015812,225.371536 44.015812,223.639191 44.015812,221.789841 
	C40.618649,221.548492 37.881687,221.354050 35.225136,221.165329 
	C33.786678,216.963303 34.942177,215.194901 39.139782,215.498642 
	C41.701359,215.683990 44.287285,215.532852 46.789429,215.532852 
	C46.789429,212.913193 46.789429,211.050766 46.789429,208.822815 
	C42.242451,208.822815 38.119495,208.822815 33.899147,208.487045 
	C28.160244,195.787445 22.393372,183.478806 16.918993,171.041412 
	C12.922580,161.961853 9.427165,152.661957 5.441862,143.577225 
	C4.518989,141.473480 2.509489,139.846405 1.000001,138.000000 
	C1.000000,92.333321 1.000000,46.666641 1.000000,1.000000 
	C4.730953,1.000000 8.386301,1.000000 12.520828,1.463985 
	C14.746514,19.119978 15.723912,36.435486 18.459063,53.468742 
	C21.115191,70.009911 24.565828,86.572670 29.497080,102.561707 
	C35.706154,122.693947 43.011620,142.578156 51.282124,161.955582 
	C57.714687,177.026764 66.402969,191.130325 73.943649,205.738815 
	C75.042244,207.867126 75.332344,210.412735 75.622131,212.868805 
	C71.610451,215.898209 67.613739,212.691223 63.392361,213.284836 
	C63.392361,220.728317 63.227631,227.834442 63.572968,234.915726 
	C63.623783,235.957657 66.131775,237.687393 67.434456,237.626846 
	C68.664680,237.569656 70.622276,235.700867 70.825645,234.404022 
	C71.359093,231.002274 71.110382,227.477859 71.457176,224.155609 
	C74.264206,226.205185 76.787415,228.101471 79.428024,230.400970 
	C80.464828,233.339584 77.475197,237.730652 83.092468,238.414978 
	C83.506584,239.515259 83.671577,240.406326 84.171700,241.027618 
	C94.452766,253.799561 102.565666,268.257751 114.842232,279.504150 
	C120.827904,284.987518 126.083862,291.285065 131.499893,297.365692 
	C134.513916,300.749573 137.178131,304.444977 140.000000,308.000000 
M57.826168,203.529938 
	C57.012726,203.399216 56.203255,203.230774 55.385128,203.144562 
	C52.564617,202.847427 51.024628,203.719757 51.125740,206.974716 
	C51.240520,210.669708 53.693130,210.392029 55.992455,210.139084 
	C60.352238,209.659485 58.750942,206.578323 57.826168,203.529938 
z"/>
<path fill="#505F74" opacity="1.000000" stroke="none" 
	d="
M366.000000,163.000000 
	C366.000000,173.354233 366.000000,183.708450 365.611206,194.511261 
	C363.325409,194.393112 361.262543,194.133026 359.557800,193.210892 
	C346.574768,186.188171 333.063232,179.919708 320.894165,171.677277 
	C308.585846,163.340485 296.928650,153.733154 286.232239,143.393417 
	C267.083069,124.882805 253.002548,102.521332 241.037186,78.528046 
	C241.531601,76.308586 241.946136,74.432747 242.431946,72.234329 
	C238.067474,72.234329 234.276810,72.234329 230.237946,71.937943 
	C220.441391,49.028767 214.549500,25.536572 213.000000,1.000000 
	C225.354233,1.000000 237.708450,1.000000 250.582550,1.413782 
	C253.022385,21.337780 258.186615,40.050564 265.153503,58.295555 
	C273.757019,80.826546 287.575134,100.008553 303.386475,117.971664 
	C313.701691,129.690674 325.549347,139.573135 338.612091,147.901169 
	C347.384460,153.493927 356.846527,158.004974 366.000000,163.000000 
z"/>
<path fill="#394A62" opacity="1.000000" stroke="none" 
	d="
M1.000001,138.468658 
	C2.509489,139.846405 4.518989,141.473480 5.441862,143.577225 
	C9.427165,152.661957 12.922580,161.961853 16.918993,171.041412 
	C22.393372,183.478806 28.160244,195.787445 33.457207,208.550461 
	C31.197523,208.949646 29.282391,208.949646 27.323910,208.949646 
	C27.323910,218.926239 27.323910,228.137665 27.323910,237.592545 
	C29.746866,237.592545 31.828074,237.592545 34.276077,237.592545 
	C34.515781,234.333450 34.739227,231.295319 34.985035,227.953247 
	C38.271072,227.953247 41.076389,227.953247 43.881706,227.953247 
	C46.041428,229.872040 48.201145,231.790848 50.737152,234.204773 
	C52.075047,235.826782 53.036652,236.953659 53.998260,238.080551 
	C54.635559,239.954483 54.907288,242.074036 55.972973,243.660141 
	C60.780922,250.815994 65.628151,257.960449 70.810768,264.845917 
	C77.869392,274.223816 85.219780,283.383148 92.509583,292.585083 
	C93.841576,294.266479 95.733437,295.533051 96.924904,297.290710 
	C99.095032,300.492096 100.934006,303.917938 102.955582,307.625061 
	C85.312439,308.000000 67.624878,308.000000 49.448906,307.614014 
	C48.207836,305.054352 47.886086,302.581512 46.623016,300.762207 
	C42.572216,294.927612 38.260113,289.266998 33.890617,283.662598 
	C24.530542,271.657196 15.723988,259.339722 8.965487,245.591293 
	C7.314943,242.233688 3.707635,239.837967 1.000001,237.000000 
	C1.000000,204.312439 1.000000,171.624878 1.000001,138.468658 
z"/>
<path fill="#526276" opacity="1.000000" stroke="none" 
	d="
M366.000000,162.531342 
	C356.846527,158.004974 347.384460,153.493927 338.612091,147.901169 
	C325.549347,139.573135 313.701691,129.690674 303.386475,117.971664 
	C287.575134,100.008553 273.757019,80.826546 265.153503,58.295555 
	C258.186615,40.050564 253.022385,21.337780 251.051208,1.413782 
	C259.687561,1.000000 268.375122,1.000000 277.621063,1.385375 
	C280.085724,10.704996 281.710968,19.710472 283.954010,28.559351 
	C289.422638,50.133293 299.262329,69.890236 313.180115,86.958084 
	C323.379822,99.466347 335.866333,110.221146 348.042969,120.952568 
	C353.073212,125.385803 359.958435,127.714264 366.000000,131.000000 
	C366.000000,141.354233 366.000000,151.708450 366.000000,162.531342 
z"/>
<path fill="#3E5067" opacity="1.000000" stroke="none" 
	d="
M75.996559,212.765259 
	C75.332344,210.412735 75.042244,207.867126 73.943649,205.738815 
	C66.402969,191.130325 57.714687,177.026764 51.282124,161.955582 
	C43.011620,142.578156 35.706154,122.693947 29.497080,102.561707 
	C24.565828,86.572670 21.115191,70.009911 18.459063,53.468742 
	C15.723912,36.435486 14.746514,19.119978 13.000004,1.463985 
	C20.020948,1.000000 27.041895,1.000000 34.538467,1.404241 
	C36.768742,19.119247 37.536751,36.603863 40.547874,53.693237 
	C43.735348,71.783485 48.458824,89.672073 53.607399,107.329170 
	C59.213905,126.556770 66.341080,145.339478 75.654732,163.136108 
	C82.425163,176.073135 89.936577,188.620361 96.899643,201.459595 
	C99.680359,206.586960 101.930809,211.989960 107.245697,215.476624 
	C106.145393,219.196609 105.094246,222.533081 103.637062,227.158340 
	C101.853203,221.985916 100.553146,218.261108 99.283852,214.525848 
	C97.141891,208.222473 97.103722,208.194626 89.845779,209.644211 
	C91.606468,214.784073 93.355225,219.889114 94.745262,224.947464 
	C91.919540,223.600464 89.452545,222.300156 86.798325,220.703369 
	C84.927124,215.284119 81.552963,212.509079 75.996559,212.765259 
z"/>
<path fill="#4C5C71" opacity="1.000000" stroke="none" 
	d="
M212.531342,1.000000 
	C214.549500,25.536572 220.441391,49.028767 229.958389,72.158676 
	C226.151230,75.931755 222.375427,79.187714 218.742828,82.320190 
	C213.998154,73.118896 208.391479,70.448669 196.855316,72.546463 
	C197.003342,80.804619 202.446854,86.717758 210.581543,87.197433 
	C215.380539,87.480431 220.198212,87.446289 225.085358,87.934647 
	C226.449341,91.904572 227.735474,95.494629 228.756027,99.323273 
	C223.371277,101.725960 225.442947,106.315094 224.921188,110.069626 
	C224.886047,110.097778 224.815475,110.153671 224.447449,110.128647 
	C223.096481,110.069389 222.113525,110.035149 221.086594,109.572624 
	C221.119644,104.157669 221.298035,99.168777 221.188675,94.186203 
	C221.166656,93.182762 220.053024,92.203278 219.442688,91.212753 
	C218.773026,92.151772 217.642319,93.036873 217.524948,94.040474 
	C217.237076,96.501953 217.393021,99.018257 217.411789,101.512192 
	C217.498535,113.036652 214.629471,123.525162 206.337952,132.095276 
	C202.331360,125.873146 198.675232,119.802254 195.482117,113.769005 
	C200.269135,113.806656 204.593155,113.806656 208.917160,113.806656 
	C209.005356,113.457542 209.093552,113.108429 209.181747,112.759315 
	C202.102402,109.904503 195.023056,107.049698 188.141373,103.836815 
	C188.842773,102.837219 189.346497,102.195694 190.193863,101.623886 
	C196.556168,103.725365 202.574844,105.757118 209.461594,108.081909 
	C207.134262,102.491760 203.439651,99.485283 198.746536,98.264191 
	C194.648163,97.197845 190.256958,97.256905 185.946640,96.458794 
	C185.682388,95.296593 185.582413,94.439812 185.234024,93.700020 
	C174.269318,70.416458 168.818848,45.561237 164.710449,20.384373 
	C163.677261,14.052870 164.195007,7.468280 164.000000,1.000000 
	C180.020889,1.000000 196.041794,1.000000 212.531342,1.000000 
z"/>
<path fill="#46566C" opacity="1.000000" stroke="none" 
	d="
M140.303131,160.673187 
	C136.824005,153.713623 133.060120,146.879501 129.926910,139.767532 
	C123.983444,126.276657 117.815605,112.836868 112.840988,98.980927 
	C108.258476,86.217155 104.380180,73.093147 101.546516,59.838192 
	C98.535217,45.752300 97.025299,31.338470 95.052910,17.041199 
	C94.354897,11.981502 94.225784,6.843322 93.918472,1.370486 
	C106.020897,1.000000 118.041786,1.000000 130.555283,1.421581 
	C131.318069,3.651940 131.700531,5.452009 131.841614,7.270801 
	C134.000305,35.099720 139.780869,62.140064 149.050690,88.477577 
	C151.122055,94.362762 152.225174,100.588722 153.359604,106.635094 
	C145.124664,106.021751 138.616440,108.541069 133.657654,114.742554 
	C128.274628,121.474602 127.767174,130.861588 132.377640,138.514572 
	C136.880142,145.988373 145.525391,149.825348 153.815811,148.321045 
	C160.457932,147.115829 165.070160,143.197083 169.175735,138.054535 
	C174.446716,140.118164 175.340775,144.147293 174.559540,148.874359 
	C161.817276,149.873352 149.709824,151.382645 140.303131,160.673187 
z"/>
<path fill="#44556B" opacity="1.000000" stroke="none" 
	d="
M148.084259,184.997345 
	C147.253693,184.976105 146.423111,184.954880 145.169296,184.457123 
	C144.746048,178.888824 144.746048,173.797058 144.746048,168.599884 
	C143.950729,168.770386 143.500122,168.730316 143.367233,168.916733 
	C142.115250,170.672913 140.917496,172.467743 139.704102,174.251404 
	C138.800934,174.184357 137.897797,174.117310 136.574585,173.681244 
	C140.681152,163.956619 147.824402,157.759537 158.019806,155.541809 
	C158.654800,156.910156 159.266037,157.954727 159.910950,159.369278 
	C159.944626,168.440979 159.944626,177.142700 159.944626,185.766647 
	C167.697464,186.248566 167.685181,186.248428 167.759460,179.458496 
	C167.775726,177.971634 167.913803,176.486115 168.382812,174.999817 
	C169.543961,174.999207 170.318069,174.998764 171.191650,175.439789 
	C171.291138,178.824036 171.291138,181.766769 171.291138,184.818680 
	C174.046768,185.014389 176.023682,185.154800 178.118607,185.597397 
	C188.413879,197.685135 198.539413,209.516266 208.837784,221.195023 
	C210.042374,222.561066 212.200439,223.086334 213.992676,224.460449 
	C214.068863,229.115158 214.068863,233.310791 214.068863,238.259949 
	C217.121078,237.752991 219.436615,237.368408 222.108780,237.069000 
	C228.385117,241.361572 234.310806,245.560562 240.223267,249.778107 
	C251.545074,257.854340 262.346130,266.814941 274.290192,273.830444 
	C295.197266,286.110413 316.940491,296.883484 340.230530,304.170990 
	C342.042328,304.737885 343.420349,306.691101 345.000000,308.000000 
	C323.312439,308.000000 301.624878,308.000000 279.468658,308.000000 
	C278.468201,304.614868 276.467896,302.785095 273.454163,301.016998 
	C264.207275,295.591766 255.158936,289.796814 246.288467,283.770203 
	C237.561157,277.840851 228.902191,271.757294 220.664658,265.176300 
	C213.044556,259.088654 206.157990,252.090851 198.678116,245.816071 
	C195.049652,242.772217 190.802750,240.465591 186.832840,237.334412 
	C188.029648,237.020233 189.228104,237.206650 190.429550,237.371292 
	C192.718735,237.684998 196.034897,239.308945 196.271606,235.465805 
	C196.725372,228.098633 196.403610,220.683685 196.403610,212.214569 
	C193.218536,213.220444 191.117004,213.884109 188.206268,214.803345 
	C182.591766,211.383636 176.999374,212.196518 171.904373,218.000519 
	C171.162552,218.000061 170.420746,217.999603 169.203156,217.637817 
	C166.485321,213.528336 164.243240,209.780151 162.001160,206.031967 
	C160.257996,203.486084 158.409805,201.004715 156.796692,198.378937 
	C154.477875,194.604416 152.330170,190.724762 150.478149,186.474609 
	C152.576187,185.248779 155.761169,184.512070 155.806580,183.616272 
	C156.201935,175.814682 156.034790,167.984589 156.034790,159.998383 
	C150.094543,161.489227 147.675507,164.402878 148.255371,170.139099 
	C148.750397,175.036041 148.182159,180.040466 148.084259,184.997345 
z"/>
<path fill="#48596E" opacity="1.000000" stroke="none" 
	d="
M174.996246,148.813873 
	C175.340775,144.147293 174.446716,140.118164 169.243835,137.687317 
	C175.183853,123.879807 168.997391,111.443336 153.774063,106.657799 
	C152.225174,100.588722 151.122055,94.362762 149.050690,88.477577 
	C139.780869,62.140064 134.000305,35.099720 131.841614,7.270801 
	C131.700531,5.452009 131.318069,3.651940 131.023941,1.421581 
	C141.687561,1.000000 152.375122,1.000000 163.531342,1.000000 
	C164.195007,7.468280 163.677261,14.052870 164.710449,20.384373 
	C168.818848,45.561237 174.269318,70.416458 185.234024,93.700020 
	C185.582413,94.439812 185.682388,95.296593 185.588425,96.518890 
	C184.334625,97.025658 183.390549,97.112389 181.063141,97.326195 
	C184.756348,99.103210 187.303299,100.328690 189.850235,101.554169 
	C189.346497,102.195694 188.842773,102.837219 187.782074,103.789467 
	C185.941071,103.792931 184.657028,103.485680 183.062302,103.104073 
	C184.789795,109.877380 190.214325,111.439415 195.019089,113.731354 
	C198.675232,119.802254 202.331360,125.873146 206.162659,132.402100 
	C198.209198,142.732956 187.259964,147.064590 174.996246,148.813873 
z"/>
<path fill="#47576D" opacity="1.000000" stroke="none" 
	d="
M345.468933,308.000000 
	C343.420349,306.691101 342.042328,304.737885 340.230530,304.170990 
	C316.940491,296.883484 295.197266,286.110413 274.290192,273.830444 
	C262.346130,266.814941 251.545074,257.854340 240.223267,249.778107 
	C234.310806,245.560562 228.385117,241.361572 222.063202,236.606918 
	C221.660980,231.680847 221.660980,227.302017 221.660980,222.923203 
	C222.074219,222.823639 222.487442,222.724075 222.900681,222.624496 
	C225.351547,226.680573 228.060715,230.607422 230.174118,234.832291 
	C231.966232,238.414871 234.982498,238.431915 237.720154,237.564682 
	C238.862930,237.202698 239.697403,234.264236 239.782578,232.455368 
	C240.087418,225.980942 240.011414,219.488586 240.398224,213.111938 
	C242.865540,214.498215 245.014084,215.775574 247.036911,217.392609 
	C243.433624,224.327148 243.985046,230.351639 248.445709,234.497299 
	C253.369827,239.073669 259.187561,239.247147 266.411438,235.083282 
	C267.536652,235.518631 268.333252,235.893860 269.287933,236.594574 
	C271.630219,237.302963 273.814392,237.685867 276.068054,238.404907 
	C278.643707,241.067276 280.885620,243.803513 283.715454,245.627594 
	C288.447632,248.677902 293.443970,251.377869 298.525726,253.815414 
	C314.090302,261.281189 329.594269,268.910492 345.445221,275.723907 
	C351.866364,278.483978 359.123352,279.299561 366.000000,281.000000 
	C366.000000,289.917053 366.000000,298.834076 366.000000,308.000000 
	C359.314667,308.000000 352.626251,308.000000 345.468933,308.000000 
z"/>
<path fill="#3F5067" opacity="1.000000" stroke="none" 
	d="
M107.294846,215.093109 
	C101.930809,211.989960 99.680359,206.586960 96.899643,201.459595 
	C89.936577,188.620361 82.425163,176.073135 75.654732,163.136108 
	C66.341080,145.339478 59.213905,126.556770 53.607399,107.329170 
	C48.458824,89.672073 43.735348,71.783485 40.547874,53.693237 
	C37.536751,36.603863 36.768742,19.119247 35.007042,1.404241 
	C40.022091,1.000000 45.044186,1.000000 50.533138,1.000000 
	C52.399208,25.307421 55.440132,49.434139 61.318424,73.042305 
	C65.291267,88.997864 70.157951,104.808212 75.826324,120.242256 
	C81.376060,135.353241 87.931786,150.157898 95.014336,164.622864 
	C100.709129,176.253601 107.776489,187.220078 114.416115,198.373367 
	C115.645065,200.437775 117.737778,201.987991 119.759911,204.285431 
	C119.884865,207.727448 119.890472,210.513565 124.019043,210.416260 
	C124.013641,210.949188 124.008240,211.482101 123.591003,212.479584 
	C122.148994,214.232483 120.340424,215.456558 120.227737,216.820709 
	C119.811836,221.855652 119.956825,226.936920 119.580933,231.878326 
	C116.770760,229.684616 114.270592,227.613373 111.815445,225.183609 
	C113.682716,219.769745 115.504967,214.714386 117.474525,209.250336 
	C114.513985,209.250336 112.100540,209.250336 109.631935,209.250336 
	C108.851517,211.201385 108.073181,213.147247 107.294846,215.093109 
z"/>
<path fill="#4E5E73" opacity="1.000000" stroke="none" 
	d="
M229.021591,99.084686 
	C227.735474,95.494629 226.449341,91.904572 225.462433,87.836479 
	C232.615860,87.732712 237.314148,84.246834 240.957291,78.871674 
	C253.002548,102.521332 267.083069,124.882805 286.232239,143.393417 
	C296.928650,153.733154 308.585846,163.340485 320.894165,171.677277 
	C333.063232,179.919708 346.574768,186.188171 359.557800,193.210892 
	C361.262543,194.133026 363.325409,194.393112 365.611206,194.979919 
	C366.000000,201.687637 366.000000,208.375290 365.617859,215.509674 
	C364.114136,215.672821 362.903748,215.572159 361.884521,215.077621 
	C350.408234,209.509094 339.042450,203.706161 327.486816,198.309174 
	C311.296539,190.747604 298.156403,178.941071 284.477234,167.892700 
	C269.233521,155.580673 257.696045,139.833664 245.591171,124.687874 
	C241.861420,120.021194 239.748230,114.062515 237.092041,108.430328 
	C239.134552,105.531746 240.979858,102.898270 242.825165,100.264786 
	C242.456268,99.871422 242.087357,99.478050 241.718460,99.084686 
	C237.486160,99.084686 233.253876,99.084686 229.021591,99.084686 
z"/>
<path fill="#546378" opacity="1.000000" stroke="none" 
	d="
M366.000000,130.531372 
	C359.958435,127.714264 353.073212,125.385803 348.042969,120.952568 
	C335.866333,110.221146 323.379822,99.466347 313.180115,86.958084 
	C299.262329,69.890236 289.422638,50.133293 283.954010,28.559351 
	C281.710968,19.710472 280.085724,10.704996 278.089722,1.385375 
	C285.020966,1.000000 292.041901,1.000000 299.540649,1.423564 
	C302.837280,24.827942 311.059052,45.735004 323.354919,65.315262 
	C331.809509,78.778488 343.684357,88.943733 354.704163,99.939110 
	C357.767792,102.995949 362.197205,104.683983 366.000000,107.000000 
	C366.000000,114.687584 366.000000,122.375160 366.000000,130.531372 
z"/>
<path fill="#566579" opacity="1.000000" stroke="none" 
	d="
M366.000000,106.531342 
	C362.197205,104.683983 357.767792,102.995949 354.704163,99.939110 
	C343.684357,88.943733 331.809509,78.778488 323.354919,65.315262 
	C311.059052,45.735004 302.837280,24.827942 300.009216,1.423564 
	C309.020905,1.000000 318.041779,1.000000 327.540283,1.420245 
	C331.354462,27.743479 343.384064,49.369377 360.880035,68.244499 
	C362.126678,69.589417 364.272339,70.100960 366.000000,71.000000 
	C366.000000,82.687561 366.000000,94.375122 366.000000,106.531342 
z"/>
<path fill="#4B5C71" opacity="1.000000" stroke="none" 
	d="
M221.130569,110.000908 
	C222.113525,110.035149 223.096481,110.069389 224.527039,110.484406 
	C226.970245,114.275948 228.917465,117.716118 230.969971,121.092285 
	C239.016586,134.328293 247.974976,146.816193 258.662323,158.154694 
	C275.860840,176.401184 295.002899,192.075592 316.542786,204.893600 
	C320.579895,207.296051 324.219788,210.366089 327.887024,213.437592 
	C326.989380,216.357803 324.812195,219.926819 325.789093,221.390106 
	C328.216827,225.026535 332.082947,227.702652 336.272797,231.603638 
	C333.896545,231.281387 331.988129,230.775558 330.099487,230.840988 
	C328.448303,230.898209 326.819336,231.598114 325.180603,232.014099 
	C325.661560,233.384354 325.741791,235.202988 326.690002,236.050400 
	C331.928253,240.731857 341.142059,237.958450 344.392609,231.046661 
	C351.840851,233.728775 358.920441,236.364380 366.000000,239.000000 
	C366.000000,245.354401 366.000000,251.708801 365.630859,258.444672 
	C351.084839,253.275406 336.879730,247.794556 322.765778,242.088257 
	C320.935730,241.348389 319.576324,239.444595 318.383240,237.976074 
	C319.457245,236.718353 320.700470,235.584442 320.742920,234.407272 
	C320.952301,228.595154 320.775879,222.770432 320.875366,216.952530 
	C320.927399,213.910660 319.566437,212.910446 316.630280,212.914459 
	C313.586853,212.918610 313.037323,214.490204 313.102966,217.015152 
	C313.184998,220.171204 313.667023,223.493195 312.851532,226.431351 
	C312.347321,228.247971 309.750244,229.483719 308.092682,230.980240 
	C306.959351,229.432083 305.122314,228.000168 304.843231,226.310898 
	C304.308105,223.071075 305.000977,219.629379 304.474548,216.386658 
	C304.256561,215.043716 302.213806,213.996994 300.875671,212.512421 
	C299.435425,210.983032 298.174530,209.692032 296.797028,208.540512 
	C282.076111,196.234528 266.083160,185.142517 252.950256,171.329971 
	C239.454712,157.136002 228.746735,140.291626 216.883209,124.257385 
	C218.341888,119.272079 219.736237,114.636497 221.130569,110.000908 
z"/>
<path fill="#4C5C71" opacity="1.000000" stroke="none" 
	d="
M328.042969,213.128052 
	C324.219788,210.366089 320.579895,207.296051 316.542786,204.893600 
	C295.002899,192.075592 275.860840,176.401184 258.662323,158.154694 
	C247.974976,146.816193 239.016586,134.328293 230.969971,121.092285 
	C228.917465,117.716118 226.970245,114.275948 224.895065,110.509430 
	C224.815475,110.153671 224.886047,110.097778 225.370789,110.122620 
	C229.535294,109.663452 233.215073,109.179451 236.894836,108.695435 
	C239.748230,114.062515 241.861420,120.021194 245.591171,124.687874 
	C257.696045,139.833664 269.233521,155.580673 284.477234,167.892700 
	C298.156403,178.941071 311.296539,190.747604 327.486816,198.309174 
	C339.042450,203.706161 350.408234,209.509094 361.884521,215.077621 
	C362.903748,215.572159 364.114136,215.672821 365.617859,215.978210 
	C366.000000,223.354248 366.000000,230.708496 366.000000,238.531372 
	C358.920441,236.364380 351.840851,233.728775 344.316895,230.684921 
	C342.123016,227.308929 340.373505,224.341187 337.889282,220.127197 
	C339.056152,219.533463 341.134583,218.475876 343.075470,217.488281 
	C338.444397,211.184647 333.053253,212.975052 328.042969,213.128052 
z"/>
<path fill="#4A5A6E" opacity="1.000000" stroke="none" 
	d="
M317.998901,238.079956 
	C319.576324,239.444595 320.935730,241.348389 322.765778,242.088257 
	C336.879730,247.794556 351.084839,253.275406 365.630859,258.913086 
	C366.000000,266.020966 366.000000,273.041901 366.000000,280.531433 
	C359.123352,279.299561 351.866364,278.483978 345.445221,275.723907 
	C329.594269,268.910492 314.090302,261.281189 298.525726,253.815414 
	C293.443970,251.377869 288.447632,248.677902 283.715454,245.627594 
	C280.885620,243.803513 278.643707,241.067276 276.380249,238.267639 
	C278.274506,235.661087 279.926056,233.527939 281.898651,230.980133 
	C283.932343,236.362076 286.909424,239.812561 293.723602,236.813904 
	C291.646881,233.819809 289.464325,231.204605 287.937988,228.250381 
	C287.164551,226.753357 287.575592,224.644348 287.828094,222.915527 
	C291.114044,224.346695 294.023010,225.674347 297.022095,227.399017 
	C296.428040,232.181396 298.921295,235.903961 302.130432,237.085968 
	C305.474274,238.317596 309.769714,236.965607 313.649109,236.743240 
	C313.591034,236.365753 313.532990,235.988251 313.474945,235.610748 
	C314.982941,236.433823 316.490906,237.256882 317.998901,238.079956 
z"/>
<path fill="#354760" opacity="1.000000" stroke="none" 
	d="
M1.000001,237.468658 
	C3.707635,239.837967 7.314943,242.233688 8.965487,245.591293 
	C15.723988,259.339722 24.530542,271.657196 33.890617,283.662598 
	C38.260113,289.266998 42.572216,294.927612 46.623016,300.762207 
	C47.886086,302.581512 48.207836,305.054352 48.980247,307.614014 
	C33.059048,308.000000 17.118093,308.000000 1.000000,308.000000 
	C1.000000,284.646057 1.000000,261.291687 1.000001,237.468658 
z"/>
<path fill="#3F5067" opacity="1.000000" stroke="none" 
	d="
M128.038437,221.000900 
	C129.096954,221.000656 130.155472,221.000412 131.771088,221.294861 
	C133.711517,223.430222 135.094879,225.270905 136.304489,227.751175 
	C136.015366,228.817307 135.899994,229.243820 135.483063,229.719040 
	C133.927185,231.132217 132.672867,232.496704 131.418533,233.861191 
	C132.851318,235.049881 134.128357,236.902328 135.750717,237.283005 
	C138.726318,237.981232 141.905594,237.811432 144.999954,238.003510 
	C148.425049,242.586487 151.382538,247.629654 155.358978,251.670013 
	C169.909515,266.454437 184.065994,281.674316 201.035507,293.892273 
	C206.620483,297.913422 211.552689,302.841217 216.891693,307.677246 
	C207.979111,308.000000 198.958206,308.000000 189.378311,307.659485 
	C185.756989,304.199249 182.738571,301.035004 179.624832,297.967499 
	C164.837875,283.399902 149.818405,269.059631 135.343216,254.189240 
	C130.819733,249.542236 127.740013,243.489853 124.391121,237.996094 
	C125.790779,236.571304 127.518524,235.308075 127.671402,233.876648 
	C128.125977,229.620209 127.961182,225.297638 128.038437,221.000900 
z"/>
<path fill="#58677B" opacity="1.000000" stroke="none" 
	d="
M366.000000,70.531342 
	C364.272339,70.100960 362.126678,69.589417 360.880035,68.244499 
	C343.384064,49.369377 331.354462,27.743479 328.008911,1.420245 
	C340.615143,1.000000 353.230255,1.000000 366.000000,1.000000 
	C366.000000,24.020687 366.000000,47.041683 366.000000,70.531342 
z"/>
<path fill="#3E5067" opacity="1.000000" stroke="none" 
	d="
M123.999405,238.080780 
	C127.740013,243.489853 130.819733,249.542236 135.343216,254.189240 
	C149.818405,269.059631 164.837875,283.399902 179.624832,297.967499 
	C182.738571,301.035004 185.756989,304.199249 188.909653,307.659485 
	C180.645767,308.000000 172.291534,308.000000 163.362106,307.676178 
	C159.772827,304.316101 156.671890,301.360657 153.759628,298.229706 
	C140.971481,284.481323 128.016068,270.877991 115.593872,256.804901 
	C110.643326,251.196411 104.123375,246.359772 103.369202,237.984863 
	C105.153755,236.817352 107.063614,236.016174 107.877609,234.589661 
	C109.494537,231.756042 110.507744,228.577896 111.770416,225.542114 
	C114.270592,227.613373 116.770760,229.684616 119.655151,232.276413 
	C119.882225,235.665298 120.108498,238.246292 123.999405,238.080780 
z"/>
<path fill="#3D4E65" opacity="1.000000" stroke="none" 
	d="
M102.998962,238.068405 
	C104.123375,246.359772 110.643326,251.196411 115.593872,256.804901 
	C128.016068,270.877991 140.971481,284.481323 153.759628,298.229706 
	C156.671890,301.360657 159.772827,304.316101 162.893463,307.676178 
	C155.645752,308.000000 148.291504,308.000000 140.468628,308.000000 
	C137.178131,304.444977 134.513916,300.749573 131.499893,297.365692 
	C126.083862,291.285065 120.827904,284.987518 114.842232,279.504150 
	C102.565666,268.257751 94.452766,253.799561 84.171700,241.027618 
	C83.671577,240.406326 83.506584,239.515259 83.497780,238.331665 
	C84.868141,236.679504 86.722313,235.515839 86.838676,234.198654 
	C87.224724,229.828827 86.985161,225.403732 86.985550,220.999847 
	C89.452545,222.300156 91.919540,223.600464 94.991966,225.194458 
	C96.220413,227.258301 96.843430,229.028442 97.304398,231.049072 
	C97.642761,232.130905 98.143158,232.962250 98.801476,234.078552 
	C100.305916,235.598480 101.652435,236.833450 102.998962,238.068405 
z"/>
<path fill="#F4CC61" opacity="1.000000" stroke="none" 
	d="
M221.086594,109.572624 
	C219.736237,114.636497 218.341888,119.272079 216.628662,124.503677 
	C212.667313,129.980667 209.024857,134.861633 205.104797,139.896484 
	C199.837845,143.145630 194.848495,146.240921 189.462158,149.428513 
	C178.708786,151.419907 168.352402,153.318970 157.996033,155.218033 
	C147.824402,157.759537 140.681152,163.956619 136.122345,173.657867 
	C135.173523,176.831604 134.399429,179.718216 133.273575,182.460419 
	C132.789413,183.639664 131.575638,184.519333 130.087845,185.062347 
	C129.987625,175.461227 133.456741,167.668900 140.130188,160.936310 
	C149.709824,151.382645 161.817276,149.873352 174.559540,148.874359 
	C187.259964,147.064590 198.209198,142.732956 206.513123,132.553314 
	C214.629471,123.525162 217.498535,113.036652 217.411789,101.512192 
	C217.393021,99.018257 217.237076,96.501953 217.524948,94.040474 
	C217.642319,93.036873 218.773026,92.151772 219.442688,91.212753 
	C220.053024,92.203278 221.166656,93.182762 221.188675,94.186203 
	C221.298035,99.168777 221.119644,104.157669 221.086594,109.572624 
z"/>
<path fill="#F8D060" opacity="1.000000" stroke="none" 
	d="
M171.855408,218.373917 
	C176.999374,212.196518 182.591766,211.383636 188.206268,214.803345 
	C191.117004,213.884109 193.218536,213.220444 196.403610,212.214569 
	C196.403610,220.683685 196.725372,228.098633 196.271606,235.465805 
	C196.034897,239.308945 192.718735,237.684998 190.429550,237.371292 
	C189.228104,237.206650 188.029648,237.020233 186.453735,237.153625 
	C174.263000,239.661438 167.995911,231.442307 171.855408,218.373917 
M185.019318,230.990601 
	C186.332993,229.412827 188.434418,227.995270 188.794739,226.223618 
	C189.522842,222.643509 187.549942,220.030502 183.813339,219.501007 
	C179.944092,218.952713 177.860352,221.178604 177.366516,224.816345 
	C176.834930,228.732330 179.294693,230.907486 185.019318,230.990601 
z"/>
<path fill="#F8D060" opacity="1.000000" stroke="none" 
	d="
M145.270355,237.793915 
	C141.905594,237.811432 138.726318,237.981232 135.750717,237.283005 
	C134.128357,236.902328 132.851318,235.049881 131.418533,233.861191 
	C132.672867,232.496704 133.927185,231.132217 135.724152,229.953171 
	C138.497910,231.702026 140.728531,233.241760 143.728333,229.678619 
	C140.875656,228.668579 138.676941,227.890076 136.478226,227.111572 
	C135.094879,225.270905 133.711517,223.430222 132.168015,221.294922 
	C132.340927,217.293915 133.565430,214.185699 137.546280,213.041718 
	C141.959991,211.773361 145.563705,212.847916 149.139633,216.421005 
	C147.826157,218.881226 147.826157,218.881226 138.579254,219.553436 
	C144.242599,222.901230 152.026459,223.428848 150.434601,231.309006 
	C149.964676,233.635376 147.234909,235.505249 145.270355,237.793915 
z"/>
<path fill="#F4CC61" opacity="1.000000" stroke="none" 
	d="
M161.716461,206.250336 
	C164.243240,209.780151 166.485321,213.528336 168.832275,217.637512 
	C167.508804,219.341217 166.080490,220.683945 163.986343,222.652588 
	C163.986343,225.577515 163.911636,229.540939 164.012695,233.499893 
	C164.079620,236.121536 163.772141,237.913361 160.381378,237.949768 
	C156.889984,237.987259 156.131897,236.294968 156.267517,233.352570 
	C156.366394,231.206970 156.560196,229.003113 156.195663,226.915314 
	C155.778625,224.526657 154.750580,222.249313 154.068253,219.900284 
	C153.752808,218.814270 153.049454,217.204208 153.511673,216.633835 
	C156.217499,213.295151 155.401230,207.162659 161.716461,206.250336 
z"/>
<path fill="#F4CC61" opacity="1.000000" stroke="none" 
	d="
M148.267990,185.219910 
	C148.182159,180.040466 148.750397,175.036041 148.255371,170.139099 
	C147.675507,164.402878 150.094543,161.489227 156.034790,159.998383 
	C156.034790,167.984589 156.201935,175.814682 155.806580,183.616272 
	C155.761169,184.512070 152.576187,185.248779 150.421539,186.122559 
	C149.481369,185.938065 148.966553,185.690277 148.267990,185.219910 
z"/>
<path fill="#F4CC61" opacity="1.000000" stroke="none" 
	d="
M124.391121,237.996094 
	C120.108498,238.246292 119.882225,235.665298 119.965149,232.398865 
	C119.956825,226.936920 119.811836,221.855652 120.227737,216.820709 
	C120.340424,215.456558 122.148994,214.232483 123.587952,212.879272 
	C129.536865,213.027725 127.274376,217.347778 127.952179,220.583282 
	C127.961182,225.297638 128.125977,229.620209 127.671402,233.876648 
	C127.518524,235.308075 125.790779,236.571304 124.391121,237.996094 
z"/>
<path fill="#F4CC61" opacity="1.000000" stroke="none" 
	d="
M139.606506,174.629944 
	C140.917496,172.467743 142.115250,170.672913 143.367233,168.916733 
	C143.500122,168.730316 143.950729,168.770386 144.746048,168.599884 
	C144.746048,173.797058 144.746048,178.888824 144.754150,184.441589 
	C142.321640,184.902588 139.881027,184.902588 136.666763,184.902588 
	C137.718430,181.241455 138.613663,178.124969 139.606506,174.629944 
z"/>
<path fill="#F4CC61" opacity="1.000000" stroke="none" 
	d="
M124.361763,210.331573 
	C119.890472,210.513565 119.884865,207.727448 120.082169,204.398499 
	C126.058449,202.198456 128.402893,203.140762 127.657372,207.228851 
	C127.448143,208.376205 125.730324,209.248444 124.361763,210.331573 
z"/>
<path fill="#F4CC61" opacity="1.000000" stroke="none" 
	d="
M86.798325,220.703369 
	C86.985161,225.403732 87.224724,229.828827 86.838676,234.198654 
	C86.722313,235.515839 84.868141,236.679504 83.404709,237.996811 
	C77.475197,237.730652 80.464828,233.339584 79.547165,229.962967 
	C79.567764,227.637421 80.078102,225.909637 79.491409,224.725281 
	C78.589455,222.904480 76.934036,221.456909 75.598312,219.850983 
	C74.123329,221.234772 72.648338,222.618561 71.173355,224.002335 
	C71.110382,227.477859 71.359093,231.002274 70.825645,234.404022 
	C70.622276,235.700867 68.664680,237.569656 67.434456,237.626846 
	C66.131775,237.687393 63.623783,235.957657 63.572968,234.915726 
	C63.227631,227.834442 63.392361,220.728317 63.392361,213.284836 
	C67.613739,212.691223 71.610451,215.898209 75.622131,212.868805 
	C81.552963,212.509079 84.927124,215.284119 86.798325,220.703369 
z"/>
<path fill="#F8D060" opacity="1.000000" stroke="none" 
	d="
M43.948761,227.528564 
	C41.076389,227.953247 38.271072,227.953247 34.985035,227.953247 
	C34.739227,231.295319 34.515781,234.333450 34.276077,237.592545 
	C31.828074,237.592545 29.746866,237.592545 27.323910,237.592545 
	C27.323910,228.137665 27.323910,218.926239 27.323910,208.949646 
	C29.282391,208.949646 31.197523,208.949646 33.554596,208.886230 
	C38.119495,208.822815 42.242451,208.822815 46.789429,208.822815 
	C46.789429,211.050766 46.789429,212.913193 46.789429,215.532852 
	C44.287285,215.532852 41.701359,215.683990 39.139782,215.498642 
	C34.942177,215.194901 33.786678,216.963303 35.225136,221.165329 
	C37.881687,221.354050 40.618649,221.548492 44.015812,221.789841 
	C44.015812,223.639191 44.015812,225.371536 43.948761,227.528564 
z"/>
<path fill="#F4CC61" opacity="1.000000" stroke="none" 
	d="
M54.404282,237.997253 
	C53.036652,236.953659 52.075047,235.826782 51.028656,234.350403 
	C51.020931,228.344772 51.156124,222.688538 51.148426,217.032501 
	C51.145016,214.526871 51.622330,212.911118 54.687569,212.915024 
	C57.597908,212.918747 58.995415,213.815414 58.923374,216.923569 
	C58.792221,222.582306 58.759457,228.250275 58.937103,233.906479 
	C59.034859,237.019058 57.728844,238.165848 54.404282,237.997253 
z"/>
<path fill="#F4CC61" opacity="1.000000" stroke="none" 
	d="
M58.117470,203.812744 
	C58.750942,206.578323 60.352238,209.659485 55.992455,210.139084 
	C53.693130,210.392029 51.240520,210.669708 51.125740,206.974716 
	C51.024628,203.719757 52.564617,202.847427 55.385128,203.144562 
	C56.203255,203.230774 57.012726,203.399216 58.117470,203.812744 
z"/>
<path fill="#3D4E65" opacity="1.000000" stroke="none" 
	d="
M71.457184,224.155609 
	C72.648338,222.618561 74.123329,221.234772 75.598312,219.850983 
	C76.934036,221.456909 78.589455,222.904480 79.491409,224.725281 
	C80.078102,225.909637 79.567764,227.637421 79.429756,229.559753 
	C76.787415,228.101471 74.264206,226.205185 71.457184,224.155609 
z"/>
<path fill="#F8D060" opacity="1.000000" stroke="none" 
	d="
M241.037186,78.528046 
	C237.314148,84.246834 232.615860,87.732712 225.384583,87.456612 
	C220.198212,87.446289 215.380539,87.480431 210.581543,87.197433 
	C202.446854,86.717758 197.003342,80.804619 196.855316,72.546463 
	C208.391479,70.448669 213.998154,73.118896 218.742828,82.320190 
	C222.375427,79.187714 226.151230,75.931755 230.206573,72.455063 
	C234.276810,72.234329 238.067474,72.234329 242.431946,72.234329 
	C241.946136,74.432747 241.531601,76.308586 241.037186,78.528046 
z"/>
<path fill="#F8D060" opacity="1.000000" stroke="none" 
	d="
M103.369202,237.984863 
	C101.652435,236.833450 100.305916,235.598480 98.738014,233.760040 
	C98.166573,232.370560 97.816505,231.584579 97.466438,230.798584 
	C96.843430,229.028442 96.220413,227.258301 95.350693,225.241150 
	C93.355225,219.889114 91.606468,214.784073 89.845779,209.644211 
	C97.103722,208.194626 97.141891,208.222473 99.283852,214.525848 
	C100.553146,218.261108 101.853203,221.985916 103.637062,227.158340 
	C105.094246,222.533081 106.145393,219.196609 107.245697,215.476624 
	C108.073181,213.147247 108.851517,211.201385 109.631935,209.250336 
	C112.100540,209.250336 114.513985,209.250336 117.474525,209.250336 
	C115.504967,214.714386 113.682716,219.769745 111.815445,225.183609 
	C110.507744,228.577896 109.494537,231.756042 107.877609,234.589661 
	C107.063614,236.016174 105.153755,236.817352 103.369202,237.984863 
z"/>
<path fill="#F8D060" opacity="1.000000" stroke="none" 
	d="
M237.092041,108.430328 
	C233.215073,109.179451 229.535294,109.663452 225.405930,110.094467 
	C225.442947,106.315094 223.371277,101.725960 228.756027,99.323273 
	C233.253876,99.084686 237.486160,99.084686 241.718460,99.084686 
	C242.087357,99.478050 242.456268,99.871422 242.825165,100.264786 
	C240.979858,102.898270 239.134552,105.531746 237.092041,108.430328 
z"/>
<path fill="#F6CE61" opacity="1.000000" stroke="none" 
	d="
M190.193863,101.623886 
	C187.303299,100.328690 184.756348,99.103210 181.063141,97.326195 
	C183.390549,97.112389 184.334625,97.025658 185.636917,96.878845 
	C190.256958,97.256905 194.648163,97.197845 198.746536,98.264191 
	C203.439651,99.485283 207.134262,102.491760 209.461594,108.081909 
	C202.574844,105.757118 196.556168,103.725365 190.193863,101.623886 
z"/>
<path fill="#F6CE61" opacity="1.000000" stroke="none" 
	d="
M195.482117,113.769005 
	C190.214325,111.439415 184.789795,109.877380 183.062302,103.104073 
	C184.657028,103.485680 185.941071,103.792931 187.584412,104.147537 
	C195.023056,107.049698 202.102402,109.904503 209.181747,112.759315 
	C209.093552,113.108429 209.005356,113.457542 208.917160,113.806656 
	C204.593155,113.806656 200.269135,113.806656 195.482117,113.769005 
z"/>
<path fill="#F8D060" opacity="1.000000" stroke="none" 
	d="
M153.359604,106.635094 
	C168.997391,111.443336 175.183853,123.879807 168.903168,137.575546 
	C165.070160,143.197083 160.457932,147.115829 153.815811,148.321045 
	C145.525391,149.825348 136.880142,145.988373 132.377640,138.514572 
	C127.767174,130.861588 128.274628,121.474602 133.657654,114.742554 
	C138.616440,108.541069 145.124664,106.021751 153.359604,106.635094 
M151.918411,144.066574 
	C153.606903,142.600098 155.295380,141.133621 157.822510,138.938766 
	C158.819733,130.329834 158.244751,129.681396 149.601654,125.195168 
	C147.823303,124.272102 147.196686,121.130081 146.039215,119.010826 
	C146.674805,118.463783 147.310394,117.916740 147.945969,117.369698 
	C151.062363,118.904350 154.178741,120.438995 157.295120,121.973648 
	C157.584915,121.620422 157.874695,121.267204 158.164490,120.913979 
	C155.889923,117.410744 153.659027,113.876640 151.249771,110.468628 
	C151.075485,110.222099 149.438461,110.674805 148.766327,111.180748 
	C147.063324,112.462646 145.522446,113.959923 143.102722,116.086105 
	C141.562958,124.447838 142.477829,125.784966 151.080460,129.957321 
	C152.877701,130.829010 153.582748,133.952637 154.791107,136.038513 
	C154.157211,136.615997 153.523331,137.193497 152.889435,137.770996 
	C149.790054,136.202103 146.690674,134.633209 143.284958,132.909256 
	C143.552399,137.016281 148.586639,143.856873 151.918411,144.066574 
z"/>
<path fill="#47576D" opacity="1.000000" stroke="none" 
	d="
M158.019806,155.541809 
	C168.352402,153.318970 178.708786,151.419907 189.483032,149.889008 
	C189.933975,151.178513 189.967026,152.099838 189.653564,153.179474 
	C187.285950,154.019653 185.264832,154.701508 183.200378,155.397964 
	C183.200378,165.248871 183.200378,174.968674 183.200378,184.739227 
	C185.801651,184.739227 188.155212,184.739227 191.000275,184.739227 
	C191.000275,174.529312 191.000275,164.764648 191.387482,154.999710 
	C192.549149,154.998657 193.323578,154.997894 194.196777,155.457153 
	C194.295532,165.838257 194.295532,175.759323 194.295532,186.041183 
	C197.855026,185.628281 201.327927,187.622559 202.742325,182.980286 
	C204.060379,182.991409 204.939102,182.997620 205.909668,183.418961 
	C208.633255,184.142746 211.264984,184.451385 214.139328,185.006516 
	C218.079895,188.831757 221.960251,192.243729 225.426300,196.034531 
	C229.151794,200.109055 232.488327,204.539200 235.584167,208.876373 
	C234.204330,210.085327 232.545166,211.150864 232.398727,212.394516 
	C232.007370,215.718170 232.265457,219.118286 232.265457,222.488022 
	C231.823730,222.571289 231.381989,222.654556 230.940262,222.737823 
	C229.010529,219.740509 226.834000,216.870316 225.209381,213.715866 
	C222.821625,209.079651 219.381210,207.943024 213.916489,209.728561 
	C213.916489,214.431580 213.916489,219.216476 213.916489,224.001373 
	C212.200439,223.086334 210.042374,222.561066 208.837784,221.195023 
	C198.539413,209.516266 188.413879,197.685135 178.474396,185.321075 
	C178.712173,175.217957 178.712173,165.693314 178.712173,156.173462 
	C171.542404,156.248535 171.428146,156.393799 171.374222,163.084930 
	C171.342224,167.056564 171.190201,171.027206 171.092163,174.998306 
	C170.318069,174.998764 169.543961,174.999207 168.290863,174.539795 
	C167.811844,168.619507 167.811844,163.159088 167.811844,157.003006 
	C164.496033,157.837250 162.186661,158.418274 159.877289,158.999298 
	C159.266037,157.954727 158.654800,156.910156 158.019806,155.541809 
z"/>
<path fill="#F4CC61" opacity="1.000000" stroke="none" 
	d="
M213.992676,224.460449 
	C213.916489,219.216476 213.916489,214.431580 213.916489,209.728561 
	C219.381210,207.943024 222.821625,209.079651 225.209381,213.715866 
	C226.834000,216.870316 229.010529,219.740509 230.940262,222.737823 
	C231.381989,222.654556 231.823730,222.571289 232.265457,222.488022 
	C232.265457,219.118286 232.007370,215.718170 232.398727,212.394516 
	C232.545166,211.150864 234.204330,210.085327 235.974274,208.940323 
	C240.078384,208.503769 239.812851,210.969910 240.079468,213.003021 
	C240.011414,219.488586 240.087418,225.980942 239.782578,232.455368 
	C239.697403,234.264236 238.862930,237.202698 237.720154,237.564682 
	C234.982498,238.431915 231.966232,238.414871 230.174118,234.832291 
	C228.060715,230.607422 225.351547,226.680573 222.900681,222.624496 
	C222.487442,222.724075 222.074219,222.823639 221.660980,222.923203 
	C221.660980,227.302017 221.660980,231.680847 221.706573,236.521729 
	C219.436615,237.368408 217.121078,237.752991 214.068863,238.259949 
	C214.068863,233.310791 214.068863,229.115158 213.992676,224.460449 
z"/>
<path fill="#F4CC61" opacity="1.000000" stroke="none" 
	d="
M171.191650,175.439789 
	C171.190201,171.027206 171.342224,167.056564 171.374222,163.084930 
	C171.428146,156.393799 171.542404,156.248535 178.712173,156.173462 
	C178.712173,165.693314 178.712173,175.217957 178.356384,185.018890 
	C176.023682,185.154800 174.046768,185.014389 171.291138,184.818680 
	C171.291138,181.766769 171.291138,178.824036 171.191650,175.439789 
z"/>
<path fill="#F6CE61" opacity="1.000000" stroke="none" 
	d="
M159.910950,159.369293 
	C162.186661,158.418274 164.496033,157.837250 167.811844,157.003006 
	C167.811844,163.159088 167.811844,168.619507 167.903809,174.539948 
	C167.913803,176.486115 167.775726,177.971634 167.759460,179.458496 
	C167.685181,186.248428 167.697464,186.248566 159.944626,185.766647 
	C159.944626,177.142700 159.944626,168.440979 159.910950,159.369293 
z"/>
<path fill="#4A5A6E" opacity="1.000000" stroke="none" 
	d="
M240.398224,213.111938 
	C239.812851,210.969910 240.078384,208.503769 236.384674,208.878113 
	C232.488327,204.539200 229.151794,200.109055 225.426300,196.034531 
	C221.960251,192.243729 218.079895,188.831757 214.092896,184.555481 
	C213.871902,173.572006 213.939987,163.286057 214.331757,153.106903 
	C220.815933,159.873611 226.903412,166.603027 233.155716,173.175644 
	C240.681412,181.086853 248.322540,188.888947 255.960785,196.692184 
	C261.264679,202.110657 266.647980,207.451385 271.636780,212.907776 
	C271.314545,214.254028 270.882507,215.811462 271.460754,216.739288 
	C277.058319,225.721069 277.110596,225.693680 270.737427,234.421265 
	C270.257721,235.078217 269.668274,235.655029 269.129822,236.269089 
	C268.333252,235.893860 267.536652,235.518631 266.528137,234.701736 
	C265.553192,232.770981 264.790192,231.281860 264.065674,229.867844 
	C255.893814,233.009750 254.523407,232.780029 252.307846,227.853668 
	C256.297363,227.853668 260.097748,227.921371 263.894745,227.836670 
	C268.734222,227.728714 269.751007,226.281250 268.385529,221.566849 
	C265.952301,213.166138 255.625793,209.077194 247.162628,217.052933 
	C245.014084,215.775574 242.865540,214.498215 240.398224,213.111938 
z"/>
<path fill="#F6CE61" opacity="1.000000" stroke="none" 
	d="
M247.036911,217.392609 
	C255.625793,209.077194 265.952301,213.166138 268.385529,221.566849 
	C269.751007,226.281250 268.734222,227.728714 263.894745,227.836670 
	C260.097748,227.921371 256.297363,227.853668 252.307846,227.853668 
	C254.523407,232.780029 255.893814,233.009750 264.065674,229.867844 
	C264.790192,231.281860 265.553192,232.770981 266.199463,234.641632 
	C259.187561,239.247147 253.369827,239.073669 248.445709,234.497299 
	C243.985046,230.351639 243.433624,224.327148 247.036911,217.392609 
z"/>
<path fill="#F8D060" opacity="1.000000" stroke="none" 
	d="
M269.287933,236.594574 
	C269.668274,235.655029 270.257721,235.078217 270.737427,234.421265 
	C277.110596,225.693680 277.058319,225.721069 271.460754,216.739288 
	C270.882507,215.811462 271.314545,214.254028 272.038055,212.971130 
	C278.168427,211.496857 278.824921,216.904663 281.555084,219.266541 
	C286.805969,212.516617 286.805969,212.516617 293.345093,213.634048 
	C291.291840,216.831360 289.371490,219.821701 287.451141,222.812042 
	C287.575592,224.644348 287.164551,226.753357 287.937988,228.250381 
	C289.464325,231.204605 291.646881,233.819809 293.723602,236.813904 
	C286.909424,239.812561 283.932343,236.362076 281.898651,230.980133 
	C279.926056,233.527939 278.274506,235.661087 276.310730,237.931503 
	C273.814392,237.685867 271.630219,237.302963 269.287933,236.594574 
z"/>
<path fill="#4C5C71" opacity="1.000000" stroke="none" 
	d="
M287.828094,222.915527 
	C289.371490,219.821701 291.291840,216.831360 293.345093,213.634048 
	C286.805969,212.516617 286.805969,212.516617 281.555084,219.266541 
	C278.824921,216.904663 278.168427,211.496857 272.397095,212.890198 
	C266.647980,207.451385 261.264679,202.110657 255.960785,196.692184 
	C248.322540,188.888947 240.681412,181.086853 233.155716,173.175644 
	C226.903412,166.603027 220.815933,159.873611 214.244324,152.648422 
	C213.833221,147.383072 213.833221,142.682953 213.833221,137.553619 
	C211.682098,138.700851 210.413300,139.377548 208.673676,140.021973 
	C207.262711,139.907333 206.322556,139.824966 205.382385,139.742599 
	C209.024857,134.861633 212.667313,129.980667 216.564331,124.853401 
	C228.746735,140.291626 239.454712,157.136002 252.950256,171.329971 
	C266.083160,185.142517 282.076111,196.234528 296.797028,208.540512 
	C298.174530,209.692032 299.435425,210.983032 300.458466,212.576752 
	C299.159760,214.021973 297.430634,215.008957 297.281738,216.194458 
	C296.834412,219.755417 297.003448,223.393829 296.932007,227.002014 
	C294.023010,225.674347 291.114044,224.346695 287.828094,222.915527 
z"/>
<path fill="#F4CC61" opacity="1.000000" stroke="none" 
	d="
M297.022064,227.399017 
	C297.003448,223.393829 296.834412,219.755417 297.281738,216.194458 
	C297.430634,215.008957 299.159760,214.021973 300.583679,212.879913 
	C302.213806,213.996994 304.256561,215.043716 304.474548,216.386658 
	C305.000977,219.629379 304.308105,223.071075 304.843231,226.310898 
	C305.122314,228.000168 306.959351,229.432083 308.092682,230.980240 
	C309.750244,229.483719 312.347321,228.247971 312.851532,226.431351 
	C313.667023,223.493195 313.184998,220.171204 313.102966,217.015152 
	C313.037323,214.490204 313.586853,212.918610 316.630280,212.914459 
	C319.566437,212.910446 320.927399,213.910660 320.875366,216.952530 
	C320.775879,222.770432 320.952301,228.595154 320.742920,234.407272 
	C320.700470,235.584442 319.457245,236.718353 318.383240,237.976074 
	C316.490906,237.256882 314.982941,236.433823 313.474945,235.610748 
	C313.532990,235.988251 313.591034,236.365753 313.649109,236.743240 
	C309.769714,236.965607 305.474274,238.317596 302.130432,237.085968 
	C298.921295,235.903961 296.428040,232.181396 297.022064,227.399017 
z"/>
<path fill="#F8D060" opacity="1.000000" stroke="none" 
	d="
M327.887024,213.437592 
	C333.053253,212.975052 338.444397,211.184647 343.075470,217.488281 
	C341.134583,218.475876 339.056152,219.533463 337.889282,220.127197 
	C340.373505,224.341187 342.123016,227.308929 343.948242,230.638428 
	C341.142059,237.958450 331.928253,240.731857 326.690002,236.050400 
	C325.741791,235.202988 325.661560,233.384354 325.180603,232.014099 
	C326.819336,231.598114 328.448303,230.898209 330.099487,230.840988 
	C331.988129,230.775558 333.896545,231.281387 336.272797,231.603638 
	C332.082947,227.702652 328.216827,225.026535 325.789093,221.390106 
	C324.812195,219.926819 326.989380,216.357803 327.887024,213.437592 
z"/>
<path fill="#425369" opacity="1.000000" stroke="none" 
	d="
M136.304489,227.751175 
	C138.676941,227.890076 140.875656,228.668579 143.728333,229.678619 
	C140.728531,233.241760 138.497910,231.702026 136.025696,229.904480 
	C135.899994,229.243820 136.015366,228.817307 136.304489,227.751175 
z"/>
<path fill="#3E5067" opacity="1.000000" stroke="none" 
	d="
M97.304398,231.049072 
	C97.816505,231.584579 98.166573,232.370560 98.580101,233.475067 
	C98.143158,232.962250 97.642761,232.130905 97.304398,231.049072 
z"/>
<path fill="#4A5A6E" opacity="1.000000" stroke="none" 
	d="
M205.104797,139.896484 
	C206.322556,139.824966 207.262711,139.907333 208.593811,140.390808 
	C206.416077,143.420059 205.822601,146.522720 205.887054,150.183197 
	C206.079620,161.119614 205.870239,172.063110 205.817810,183.003845 
	C204.939102,182.997620 204.060379,182.991409 202.670776,182.576172 
	C202.159897,170.830124 202.159897,159.493088 202.159897,147.235535 
	C198.264481,149.819107 193.946930,150.066376 194.098022,154.997116 
	C193.323578,154.997894 192.549149,154.998657 191.280151,154.738297 
	C190.523758,153.991837 190.261932,153.506500 190.000092,153.021164 
	C189.967026,152.099838 189.933975,151.178513 189.880035,149.796692 
	C194.848495,146.240921 199.837845,143.145630 205.104797,139.896484 
z"/>
<path fill="#4A5A6E" opacity="1.000000" stroke="none" 
	d="
M184.616730,231.069611 
	C179.294693,230.907486 176.834930,228.732330 177.366516,224.816345 
	C177.860352,221.178604 179.944092,218.952713 183.813339,219.501007 
	C187.549942,220.030502 189.522842,222.643509 188.794739,226.223618 
	C188.434418,227.995270 186.332993,229.412827 184.616730,231.069611 
z"/>
<path fill="#54606C" opacity="1.000000" stroke="none" 
	d="
M151.646423,144.347809 
	C148.586639,143.856873 143.552399,137.016281 143.284958,132.909256 
	C146.690674,134.633209 149.790054,136.202103 152.889435,137.770996 
	C153.523331,137.193497 154.157211,136.615997 154.791107,136.038513 
	C153.582748,133.952637 152.877701,130.829010 151.080460,129.957321 
	C142.477829,125.784966 141.562958,124.447838 143.102722,116.086105 
	C145.522446,113.959923 147.063324,112.462646 148.766327,111.180748 
	C149.438461,110.674805 151.075485,110.222099 151.249771,110.468628 
	C153.659027,113.876640 155.889923,117.410744 158.164490,120.913979 
	C157.874695,121.267204 157.584915,121.620422 157.295120,121.973648 
	C154.178741,120.438995 151.062363,118.904350 147.945969,117.369698 
	C147.310394,117.916740 146.674805,118.463783 146.039215,119.010826 
	C147.196686,121.130081 147.823303,124.272102 149.601654,125.195168 
	C158.244751,129.681396 158.819733,130.329834 157.822510,138.938766 
	C155.295380,141.133621 153.606903,142.600098 151.646423,144.347809 
z"/>
<path fill="#F6CE61" opacity="1.000000" stroke="none" 
	d="
M205.909668,183.418976 
	C205.870239,172.063110 206.079620,161.119614 205.887054,150.183197 
	C205.822601,146.522720 206.416077,143.420059 209.064606,140.423065 
	C210.413300,139.377548 211.682098,138.700851 213.833221,137.553619 
	C213.833221,142.682953 213.833221,147.383072 213.920654,152.541656 
	C213.939987,163.286057 213.871902,173.572006 213.850250,184.308990 
	C211.264984,184.451385 208.633255,184.142746 205.909668,183.418976 
z"/>
<path fill="#F4CC61" opacity="1.000000" stroke="none" 
	d="
M194.196777,155.457153 
	C193.946930,150.066376 198.264481,149.819107 202.159897,147.235535 
	C202.159897,159.493088 202.159897,170.830124 202.231445,182.571259 
	C201.327927,187.622559 197.855026,185.628281 194.295532,186.041183 
	C194.295532,175.759323 194.295532,165.838257 194.196777,155.457153 
z"/>
<path fill="#F6CE61" opacity="1.000000" stroke="none" 
	d="
M189.653580,153.179474 
	C190.261932,153.506500 190.523758,153.991837 190.892944,154.738586 
	C191.000275,164.764648 191.000275,174.529312 191.000275,184.739227 
	C188.155212,184.739227 185.801651,184.739227 183.200378,184.739227 
	C183.200378,174.968674 183.200378,165.248871 183.200378,155.397964 
	C185.264832,154.701508 187.285950,154.019653 189.653580,153.179474 
z"/>
</svg>